<svg xmlns="http://www.w3.org/2000/svg" xmlns:xlink="http://www.w3.org/1999/xlink" width="376" zoomAndPan="magnify" viewBox="0 0 282 133.500001" height="178" preserveAspectRatio="xMidYMid meet" version="1.0"><defs><g/><clipPath id="eeb9c30790"><path d="M 173.777344 34 L 228 34 L 228 116.304688 L 173.777344 116.304688 Z M 173.777344 34 " clip-rule="nonzero"/></clipPath><clipPath id="28e183e3f4"><path d="M 227 34 L 281.371094 34 L 281.371094 116.304688 L 227 116.304688 Z M 227 34 " clip-rule="nonzero"/></clipPath><clipPath id="734e02e43b"><path d="M 173.777344 19.914062 L 281.371094 19.914062 L 281.371094 49 L 173.777344 49 Z M 173.777344 19.914062 " clip-rule="nonzero"/></clipPath><clipPath id="9cf53c512c"><path d="M 187.371094 38.21875 L 268.628906 38.21875 L 268.628906 90.082031 L 187.371094 90.082031 Z M 187.371094 38.21875 " clip-rule="nonzero"/></clipPath><clipPath id="308524757b"><path d="M 0.371094 0.21875 L 81.628906 0.21875 L 81.628906 52.082031 L 0.371094 52.082031 Z M 0.371094 0.21875 " clip-rule="nonzero"/></clipPath><clipPath id="4dd2bd53d9"><rect x="0" width="82" y="0" height="53"/></clipPath><clipPath id="1aa554e063"><path d="M 187.375 26.933594 L 268.667969 26.933594 L 268.667969 38.226562 L 187.375 38.226562 Z M 187.375 26.933594 " clip-rule="nonzero"/></clipPath><clipPath id="9b190b2b92"><path d="M 228.003906 26.933594 L 268.632812 38.226562 L 187.375 38.226562 Z M 228.003906 26.933594 " clip-rule="nonzero"/></clipPath><clipPath id="92bbd7a294"><path d="M 0.375 0.933594 L 81.667969 0.933594 L 81.667969 12.226562 L 0.375 12.226562 Z M 0.375 0.933594 " clip-rule="nonzero"/></clipPath><clipPath id="14d6ff8624"><path d="M 41.003906 0.933594 L 81.632812 12.226562 L 0.375 12.226562 Z M 41.003906 0.933594 " clip-rule="nonzero"/></clipPath><clipPath id="34a41e5100"><rect x="0" width="82" y="0" height="13"/></clipPath><clipPath id="d9b03379dd"><path d="M 187.335938 90.082031 L 268.632812 90.082031 L 268.632812 100.851562 L 187.335938 100.851562 Z M 187.335938 90.082031 " clip-rule="nonzero"/></clipPath><clipPath id="5ccbd7578d"><path d="M 228.003906 100.851562 L 187.375 90.082031 L 268.632812 90.082031 Z M 228.003906 100.851562 " clip-rule="nonzero"/></clipPath><clipPath id="df834bf5b5"><path d="M 0.335938 0.0820312 L 81.632812 0.0820312 L 81.632812 10.851562 L 0.335938 10.851562 Z M 0.335938 0.0820312 " clip-rule="nonzero"/></clipPath><clipPath id="840c31d19b"><path d="M 41.003906 10.851562 L 0.375 0.0820312 L 81.632812 0.0820312 Z M 41.003906 10.851562 " clip-rule="nonzero"/></clipPath><clipPath id="d528d2f228"><rect x="0" width="82" y="0" height="11"/></clipPath></defs><g clip-path="url(#eeb9c30790)"><path fill="#77838d" d="M 173.777344 34.316406 L 173.777344 96.898438 L 227.574219 116.292969 L 227.574219 34.316406 Z M 173.777344 34.316406 " fill-opacity="1" fill-rule="nonzero"/></g><g clip-path="url(#28e183e3f4)"><path fill="#c7d0d8" d="M 227.574219 34.316406 L 227.574219 116.292969 L 281.371094 96.898438 L 281.371094 34.316406 Z M 227.574219 34.316406 " fill-opacity="1" fill-rule="nonzero"/></g><g clip-path="url(#734e02e43b)"><path fill="#9aa7b2" d="M 227.574219 19.925781 L 173.777344 34.316406 L 227.574219 48.703125 L 281.371094 34.316406 Z M 227.574219 19.925781 " fill-opacity="1" fill-rule="nonzero"/></g><g clip-path="url(#9cf53c512c)"><g transform="matrix(1, 0, 0, 1, 187, 38)"><g clip-path="url(#4dd2bd53d9)"><g clip-path="url(#308524757b)"><path fill="#000000" d="M 0.371094 52.082031 L 0.371094 0.21875 L 81.605469 0.21875 L 81.605469 52.082031 Z M 0.371094 52.082031 " fill-opacity="1" fill-rule="nonzero"/></g></g></g></g><g clip-path="url(#1aa554e063)"><g clip-path="url(#9b190b2b92)"><g transform="matrix(1, 0, 0, 1, 187, 26)"><g clip-path="url(#34a41e5100)"><g clip-path="url(#92bbd7a294)"><g clip-path="url(#14d6ff8624)"><path fill="#000000" d="M 0.375 0.933594 L 81.621094 0.933594 L 81.621094 12.226562 L 0.375 12.226562 Z M 0.375 0.933594 " fill-opacity="1" fill-rule="nonzero"/></g></g></g></g></g></g><g clip-path="url(#d9b03379dd)"><g clip-path="url(#5ccbd7578d)"><g transform="matrix(1, 0, 0, 1, 187, 90)"><g clip-path="url(#d528d2f228)"><g clip-path="url(#df834bf5b5)"><g clip-path="url(#840c31d19b)"><path fill="#000000" d="M 81.632812 10.851562 L 0.378906 10.851562 L 0.378906 0.0820312 L 81.632812 0.0820312 Z M 81.632812 10.851562 " fill-opacity="1" fill-rule="nonzero"/></g></g></g></g></g></g><g fill="#000000" fill-opacity="1"><g transform="translate(27.47323, 91.051231)"><g><path d="M 4.75 0 L 4.75 -53.140625 L 21.09375 -53.140625 C 25.769531 -53.140625 29.945312 -52.085938 33.625 -49.984375 C 37.3125 -47.878906 40.191406 -44.882812 42.265625 -41 C 44.335938 -37.125 45.375 -32.71875 45.375 -27.78125 L 45.375 -25.328125 C 45.375 -20.390625 44.351562 -16 42.3125 -12.15625 C 40.28125 -8.3125 37.414062 -5.328125 33.71875 -3.203125 C 30.019531 -1.085938 25.847656 -0.0195312 21.203125 0 Z M 15.6875 -44.265625 L 15.6875 -8.796875 L 20.984375 -8.796875 C 25.265625 -8.796875 28.535156 -10.191406 30.796875 -12.984375 C 33.066406 -15.785156 34.222656 -19.789062 34.265625 -25 L 34.265625 -27.8125 C 34.265625 -33.21875 33.144531 -37.3125 30.90625 -40.09375 C 28.675781 -42.875 25.40625 -44.265625 21.09375 -44.265625 Z M 15.6875 -44.265625 "/></g></g></g><g fill="#000000" fill-opacity="1"><g transform="translate(76.049204, 91.051231)"><g><path d="M 36.71875 -23.03125 L 15.6875 -23.03125 L 15.6875 -8.796875 L 40.375 -8.796875 L 40.375 0 L 4.75 0 L 4.75 -53.140625 L 40.296875 -53.140625 L 40.296875 -44.265625 L 15.6875 -44.265625 L 15.6875 -31.609375 L 36.71875 -31.609375 Z M 36.71875 -23.03125 "/></g></g></g><g fill="#000000" fill-opacity="1"><g transform="translate(118.09242, 91.051231)"><g><path d="M 24.375 -13.171875 L 36.421875 -53.140625 L 48.609375 -53.140625 L 30.109375 0 L 18.6875 0 L 0.25 -53.140625 L 12.40625 -53.140625 Z M 24.375 -13.171875 "/></g></g></g><g fill="#ffffff" fill-opacity="1"><g transform="translate(199.044006, 81.337613)"><g><path d="M 8.1875 -12.921875 L 8.1875 0 L 3.828125 0 L 3.828125 -32.984375 L 16 -32.984375 C 19.601562 -32.984375 22.425781 -32.0625 24.46875 -30.21875 C 26.519531 -28.382812 27.546875 -25.945312 27.546875 -22.90625 C 27.546875 -19.707031 26.546875 -17.242188 24.546875 -15.515625 C 22.546875 -13.785156 19.679688 -12.921875 15.953125 -12.921875 Z M 8.1875 -16.46875 L 16 -16.46875 C 18.320312 -16.46875 20.101562 -17.015625 21.34375 -18.109375 C 22.582031 -19.210938 23.203125 -20.796875 23.203125 -22.859375 C 23.203125 -24.828125 22.582031 -26.398438 21.34375 -27.578125 C 20.101562 -28.753906 18.40625 -29.363281 16.25 -29.40625 L 8.1875 -29.40625 Z M 8.1875 -16.46875 "/></g></g></g><g fill="#ffffff" fill-opacity="1"><g transform="translate(228.321064, 81.337613)"><g><path d="M 26.625 -29.40625 L 16.015625 -29.40625 L 16.015625 0 L 11.6875 0 L 11.6875 -29.40625 L 1.109375 -29.40625 L 1.109375 -32.984375 L 26.625 -32.984375 Z M 26.625 -29.40625 "/></g></g></g></svg>